:SAMPLES-PER-SECOND 30
:FRAME-RANGE 1-3358
:FULLY-SPECIFIED
:DEGREES
3149
root  -0.139087 35.1779 -23.8907 1.71364 -83.339 -3.08478
RightUpLeg  -13.5176 -8.65931 -22.7051
RightLeg  40.7637 -0.25638 -0.522229
RightFoot  -18.5654 1.65547 27.7273
RightToes  -5.8209e-011 0 -3.6325e-017
Spine  16.8682 0.172145 -0.638514
Spine1  -10.3818 -0.177032 1.90074
HEad  -15.4849 17.7066 -1.928
LeftShoulder1  0.533491 0.749023 -12.2502
LeftArm  -51.3181 -34.2631 12.86
LeftForeArm  -26.6407 -3.67358 -8.73082
LeftHand  -0.0243452 5.22823 -11.944
RightShoulder  5.60883 9.78365 36.2663
RightArm  4.39855 3.00997 7.086
RightForeArm  -1.42519 29.8432 6.57757
RightHand  0.0809444 7.16024 0.387422
LeftUpLeg  -20.8522 20.267 25.5665
LeftLeg  31.8871 1.21746 1.1655
LeftFoot  2.22456 1.51173 -12.7821
LeftToes  -4.03819e-010 -8.71445e-011 8.52097e-011
3150
root  -0.00847016 34.8877 -21.3573 10.9666 -81.0475 -12.3016
RightUpLeg  -9.67842 -6.36349 -25.2153
RightLeg  34.7734 -2.49652 -2.11648
RightFoot  -14.0605 0.705197 32.9136
RightToes  -5.8209e-011 0 -3.6325e-017
Spine  17.1844 0.206856 -0.467264
Spine1  -10.7784 -0.370912 3.82414
HEad  -16.7663 15.5285 0.516018
LeftShoulder1  0.800446 -0.21467 -14.6333
LeftArm  -47.4751 -35.6035 7.42131
LeftForeArm  -28.1191 -3.02995 -9.9398
LeftHand  -0.0927271 5.83911 -12.1014
RightShoulder  5.3278 9.36432 35.4772
RightArm  5.72243 3.9149 5.54529
RightForeArm  -4.77609 25.8164 5.78508
RightHand  0.0835289 7.48486 0.384949
LeftUpLeg  -25.6469 19.0647 23.7844
LeftLeg  40.9624 -0.416236 -0.000860543
LeftFoot  -5.95202 0.97694 -19.8293
LeftToes  -4.03819e-010 -8.71445e-011 8.52097e-011
3151
root  0.158969 34.719 -18.5971 12.9482 -80.264 -14.1371
RightUpLeg  -6.23946 -4.02413 -29.1505
RightLeg  27.5369 -4.14084 -2.56906
RightFoot  -6.14419 -1.80494 37.5058
RightToes  -5.8209e-011 0 -3.6325e-017
Spine  16.6656 0.217383 -0.428386
Spine1  -9.94048 -0.611365 5.62474
HEad  -19.0387 14.3715 2.33917
LeftShoulder1  1.04626 -1.11851 -15.852
LeftArm  -45.8944 -36.6163 3.91159
LeftForeArm  -28.7017 -1.95202 -10.2469
LeftHand  -0.197572 6.91763 -10.9981
RightShoulder  5.52196 10.0372 34.8577
RightArm  6.86674 4.50832 3.98408
RightForeArm  -6.03931 22.5709 5.47897
RightHand  0.163815 7.88554 1.05425
LeftUpLeg  -30.0754 20.3444 19.1476
LeftLeg  49.1246 -0.64091 -0.354491
LeftFoot  -9.90285 0.228331 -13.4293
LeftToes  -4.03819e-010 -8.71445e-011 8.52097e-011
3152
root  0.309301 35.0516 -15.7655 14.1816 -82.3899 -15.9755
RightUpLeg  -3.42406 -2.44049 -33.0693
RightLeg  18.2475 -6.54116 -2.63032
RightFoot  7.32519 -5.87097 34.9956
RightToes  -5.8209e-011 0 -3.6325e-017
Spine  16.3075 0.990336 -0.621342
Spine1  -8.34582 -0.0148473 6.44364
HEad  -19.5592 14.4024 1.75766
LeftShoulder1  1.13305 -1.37774 -16.4811
LeftArm  -45.0021 -36.2828 1.61793
LeftForeArm  -30.1527 -0.790496 -10.0365
LeftHand  -0.260535 7.67913 -10.2899
RightShoulder  5.63732 10.9459 33.0958
RightArm  6.84251 5.57133 3.01903
RightForeArm  -4.34809 20.6941 6.35488
RightHand  0.24538 8.33272 1.68687
LeftUpLeg  -29.1244 23.4181 14.4222
LeftLeg  51.7623 -0.47751 -0.182339
LeftFoot  -13.8023 -0.109041 -8.90578
LeftToes  -4.03819e-010 -8.71445e-011 8.52097e-011
3153
root  0.550172 35.7814 -12.9747 39.8801 -84.7032 -41.1317
RightUpLeg  -5.80208 -6.27682 -31.1238
RightLeg  14.1052 -0.761745 -3.78261
RightFoot  18.4608 -4.15038 15.9961
RightToes  -5.8209e-011 0 -3.6325e-017
Spine  15.9739 1.27652 1.7628
Spine1  -8.54714 0.48857 8.46868
HEad  -19.3833 16.3306 0.673934
LeftShoulder1  1.00339 -0.859941 -16.2408
LeftArm  -44.3487 -33.1779 1.25989
LeftForeArm  -30.7397 -1.47012 -9.72594
LeftHand  -0.24894 7.60374 -10.0806
RightShoulder  5.93137 11.9506 32.452
RightArm  7.63623 7.44949 3.09075
RightForeArm  -2.06895 19.8298 6.88961
RightHand  0.252205 8.6672 1.68767
LeftUpLeg  -28.0637 27.3801 10.9532
LeftLeg  50.7729 0.181503 0.695516
LeftFoot  -15.9026 -0.10169 -4.94312
LeftToes  -4.03819e-010 -8.71445e-011 8.52097e-011
3154
root  0.777793 36.7676 -10.7227 69.1422 -86.8093 -69.9986
RightUpLeg  -8.9111 -2.24496 -30.0131
RightLeg  16.9834 -3.89531 -2.42993
RightFoot  12.7819 -2.75127 13.24
RightToes  -5.8209e-011 0 -3.6325e-017
Spine  15.5648 1.66644 2.00242
Spine1  -7.41828 0.799041 8.69509
HEad  -20.5477 18.5517 -1.55707
LeftShoulder1  0.897483 -0.461431 -15.8454
LeftArm  -44.4565 -29.8664 3.06889
LeftForeArm  -30.0524 -2.85837 -9.48909
LeftHand  -0.192152 6.95051 -10.4087
RightShoulder  6.58585 13.3181 33.2086
RightArm  8.65591 8.27485 3.32486
RightForeArm  -1.15378 20.3871 6.44357
RightHand  0.195055 8.97503 1.17762
LeftUpLeg  -25.2957 28.789 6.24601
LeftLeg  45.5219 2.07982 2.68447
LeftFoot  -15.4462 -0.00389429 -2.69191
LeftToes  -4.03819e-010 -8.71445e-011 8.52097e-011
